<svg id="settings" xmlns="http://www.w3.org/2000/svg" width="20" height="20" viewBox="0 0 20 20">
  <g id="Group_2955" data-name="Group 2955" transform="translate(5.469 5.469)">
    <g id="Group_2954" data-name="Group 2954">
      <path id="Path_1941" data-name="Path 1941" d="M144.531,140a4.531,4.531,0,1,0,1.369,8.852.781.781,0,0,0-.472-1.49,2.965,2.965,0,1,1,1.953-2,.781.781,0,0,0,1.5.439A4.534,4.534,0,0,0,144.531,140Z" transform="translate(-140 -140)" fill="#8a98b8"/>
    </g>
  </g>
  <g id="Group_2957" data-name="Group 2957">
    <g id="Group_2956" data-name="Group 2956">
      <path id="Path_1942" data-name="Path 1942" d="M17.656,7.266h-.393a.26.26,0,0,1-.238-.164l-.007-.017a.262.262,0,0,1,.051-.287l.278-.278a2.346,2.346,0,0,0,0-3.315l-.552-.552a2.344,2.344,0,0,0-3.315,0l-.278.278a.262.262,0,0,1-.287.051L12.9,2.976a.261.261,0,0,1-.166-.239V2.344A2.346,2.346,0,0,0,10.391,0H9.609A2.346,2.346,0,0,0,7.266,2.344v.394a.261.261,0,0,1-.165.239l-.015.006A.262.262,0,0,1,6.8,2.931L6.52,2.653a2.344,2.344,0,0,0-3.315,0l-.552.552a2.346,2.346,0,0,0,0,3.315l.278.278a.263.263,0,0,1,.05.29l0,.011a.261.261,0,0,1-.239.166H2.344A2.346,2.346,0,0,0,0,9.609v.781a2.346,2.346,0,0,0,2.344,2.344h.393a.26.26,0,0,1,.238.164l.007.017a.262.262,0,0,1-.051.287l-.278.278a2.344,2.344,0,0,0,0,3.315l.552.552a2.344,2.344,0,0,0,3.315,0l.278-.278a.262.262,0,0,1,.287-.051l.015.006a.261.261,0,0,1,.166.239v.394A2.346,2.346,0,0,0,9.609,20h.781a2.346,2.346,0,0,0,2.344-2.344v-.394a.261.261,0,0,1,.165-.239l.015-.006a.262.262,0,0,1,.287.051l.278.278a2.344,2.344,0,0,0,3.315,0l.552-.552a2.344,2.344,0,0,0,0-3.314l-.278-.278a.262.262,0,0,1-.051-.287l.006-.014a.261.261,0,0,1,.239-.166h.393A2.346,2.346,0,0,0,20,10.391V9.609A2.346,2.346,0,0,0,17.656,7.266Zm.781,3.125a.782.782,0,0,1-.781.781h-.393A1.818,1.818,0,0,0,15.579,12.3l-.005.012a1.819,1.819,0,0,0,.39,1.991l.278.278a.781.781,0,0,1,0,1.1l-.552.552a.781.781,0,0,1-1.1,0l-.278-.278a1.82,1.82,0,0,0-1.992-.389l-.011,0a1.818,1.818,0,0,0-1.132,1.683v.394a.782.782,0,0,1-.781.781H9.609a.782.782,0,0,1-.781-.781v-.394A1.819,1.819,0,0,0,7.7,15.579l-.011,0a1.845,1.845,0,0,0-.708-.142,1.811,1.811,0,0,0-1.283.531l-.278.278a.781.781,0,0,1-1.1,0l-.552-.552a.781.781,0,0,1,0-1.1l.278-.278a1.819,1.819,0,0,0,.39-1.991L4.42,12.3a1.819,1.819,0,0,0-1.683-1.132H2.344a.782.782,0,0,1-.781-.781V9.609a.782.782,0,0,1,.781-.781h.393A1.819,1.819,0,0,0,4.421,7.693l0-.009a1.819,1.819,0,0,0-.389-1.992l-.278-.278a.782.782,0,0,1,0-1.1l.552-.552a.781.781,0,0,1,1.1,0l.278.278a1.819,1.819,0,0,0,1.992.389l.011,0A1.818,1.818,0,0,0,8.828,2.737V2.344a.782.782,0,0,1,.781-.781h.781a.782.782,0,0,1,.781.781v.394A1.819,1.819,0,0,0,12.3,4.421l.011,0a1.82,1.82,0,0,0,1.991-.389l.278-.278a.781.781,0,0,1,1.1,0l.552.552a.782.782,0,0,1,0,1.1l-.278.278a1.818,1.818,0,0,0-.39,1.989l.006.014a1.819,1.819,0,0,0,1.683,1.132h.393a.782.782,0,0,1,.781.781Z" fill="#8a98b8"/>
    </g>
  </g>
</svg>
